<svg width="520" height="520" viewBox="0 0 520 520" fill="none" xmlns="http://www.w3.org/2000/svg">
<path d="M260 512C399.176 512 512 399.176 512 260C512 120.824 399.176 8 260 8C120.824 8 8 120.824 8 260C8 399.176 120.824 512 260 512Z" fill="white" stroke="#C82929" stroke-width="20"/>
<path d="M290 8H230V96H290V8Z" fill="#C82929"/>
<path d="M290 424H230V512H290V424Z" fill="#C82929"/>
<path d="M96 230H8V290H96V230Z" fill="#C82929"/>
<path d="M512 230H424V290H512V230Z" fill="#C82929"/>
<path d="M260 430C353.888 430 430 353.888 430 260C430 166.112 353.888 90 260 90C166.112 90 90 166.112 90 260C90 353.888 166.112 430 260 430Z" fill="#F0F6FF" stroke="#C82929" stroke-width="20"/>
<path d="M282.4 325C282.4 331.133 282.4 336.067 282.4 339.8C282.4 343.267 282.533 345.667 282.8 347C283.6 355 284.8 359 286.4 359C286.133 359 286.8 358.867 288.4 358.6C290 358.333 292 357.933 294.4 357.4L294 357.8C294.8 357.533 295.733 357.267 296.8 357C298.133 356.733 299.733 356.6 301.6 356.6C315.467 356.6 322.4 362.467 322.4 374.2C322.4 379.533 320.133 383.933 315.6 387.4C311.333 390.867 305.867 392.6 299.2 392.6C297.067 392.6 294.4 392.467 291.2 392.2C288 391.933 284.267 391.533 280 391C276 390.467 272.533 390.067 269.6 389.8C266.667 389.267 264.267 389 262.4 389C259.467 389 256.133 389.133 252.4 389.4C248.933 389.667 245.2 390.067 241.2 390.6C236.4 391.133 232.267 391.533 228.8 391.8C225.6 392.333 222.933 392.6 220.8 392.6C206.4 392.6 199.2 386.467 199.2 374.2C199.2 362.467 205.733 356.6 218.8 356.6C219.333 356.6 220.8 356.733 223.2 357C225.867 357.267 228 357.533 229.6 357.8C231.467 358.333 232.933 358.6 234 358.6C235.067 358.6 235.867 358.6 236.4 358.6C238.533 358.6 240 352.2 240.8 339.4V243C240 230.467 238.4 224.2 236 224.2C235.467 224.2 234.533 224.333 233.2 224.6C231.867 224.867 230.267 225.267 228.4 225.8C227.067 226.333 225.467 226.733 223.6 227C222 227 220.667 227 219.6 227C206 227 199.2 221.133 199.2 209.4C199.2 197.4 206.933 191.4 222.4 191.4C225.333 191.4 227.733 191.4 229.6 191.4C231.467 191.4 232.8 191.533 233.6 191.8C237.333 192.333 240.4 192.733 242.8 193C245.467 193.267 247.2 193.4 248 193.4C248.533 193.4 249.6 193.4 251.2 193.4C253.067 193.133 254.8 192.867 256.4 192.6L266.8 191.4C278.267 191.4 284 198.067 284 211.4V217C283.733 218.067 283.6 219 283.6 219.8C283.6 220.333 283.6 220.733 283.6 221C283.333 221.8 283.2 225.533 283.2 232.2C283.2 234.067 283.067 236.067 282.8 238.2C282.8 240.067 282.8 242.067 282.8 244.2C282.533 249.533 282.4 254.867 282.4 260.2C282.4 265.267 282.4 270.467 282.4 275.8V325ZM256 181.8C248.267 181.8 241.733 179.267 236.4 174.2C231.067 169.133 228.4 162.867 228.4 155.4C228.4 147.933 231.067 141.8 236.4 137C241.733 131.933 248.267 129.4 256 129.4C263.733 129.4 270.267 131.933 275.6 137C281.2 141.8 284 147.933 284 155.4C284 162.867 281.2 169.133 275.6 174.2C270.267 179.267 263.733 181.8 256 181.8Z" fill="#1B3A5C"/>
</svg>
